<?xml version="1.0" encoding="UTF-8"?>
<svg id="Layer_2" data-name="Layer 2" xmlns="http://www.w3.org/2000/svg" viewBox="0 0 761.84 380.48">
  <defs>
    <style>
      .cls-1, .cls-2 {
        fill: #231f20;
      }

      .cls-2 {
        opacity: .1;
      }
    </style>
  </defs>
  <g id="Layer_1-2" data-name="Layer 1">
    <g>
      <path class="cls-1" d="M403.76,22.68V0h-224.72v22.68H0v317.96h25.8v39.84h158.24v-18.24h73.12v18.24h184.04v-63.36h136.6v63.36h162.56v-38.88h21.48V22.68h-358.08ZM100.68,375.48H30.8v-39.84H5v-77.56h95.68v117.4ZM179.04,375.48h-73.36v-117.4h73.36v117.4ZM179.04,253.08H5V27.68h174.04v225.4ZM403.76,27.68h174.04v225.4h-174.04V27.68ZM505.32,312.12h-69.12v63.36h-174.04v-27.74h-5v9.5h-73.12V5h214.72v253.08h106.56v54.04ZM659.4,375.48h-76.6v-63.36h-72.48v-54.04h149.08v117.4ZM756.84,336.6h-21.48v38.88h-70.96v-117.4h92.44v78.52ZM756.84,253.08h-174.04V27.68h174.04v225.4Z"/>
      <path d="M357.76,299.48h-102.36v-44.4h102.36v44.4ZM258.4,296.48h96.36v-38.4h-96.36v38.4Z"/>
      <rect x="103.18" y="344.36" width="78.36" height="3"/>
      <rect x="27.32" y="344.36" width="78.36" height="3"/>
      <rect x="580.3" y="344.36" width="81.43" height="3"/>
      <rect x="657.1" y="344.36" width="81.43" height="3"/>
      <path d="M566.07,178.52h-57.66v-113.88h57.66v113.88ZM511.42,175.52h51.66v-107.88h-51.66v107.88Z"/>
      <path d="M473.14,178.52h-57.66v-113.88h57.66v113.88ZM418.49,175.52h51.66v-107.88h-51.66v107.88Z"/>
      <path d="M745.11,178.52h-57.66v-113.88h57.66v113.88ZM690.46,175.52h51.66v-107.88h-51.66v107.88Z"/>
      <path d="M652.18,178.52h-57.66v-113.88h57.66v113.88ZM597.53,175.52h51.66v-107.88h-51.66v107.88Z"/>
      <path d="M167.31,178.52h-57.65v-113.88h57.65v113.88ZM112.66,175.52h51.65v-107.88h-51.65v107.88Z"/>
      <path d="M74.38,178.52H16.73v-113.88h57.65v113.88ZM19.73,175.52h51.65v-107.88H19.73v107.88Z"/>
      <path class="cls-1" d="M220.92,69.39h4.93v34.07h16.33v4.14h-21.26v-38.21Z"/>
      <path class="cls-1" d="M253.07,72.45c.06,1.7-1.19,3.06-3.17,3.06-1.76,0-3-1.36-3-3.06s1.3-3.12,3.12-3.12,3.06,1.36,3.06,3.12ZM247.51,107.6v-27.44h4.99v27.44h-4.99Z"/>
      <path class="cls-1" d="M262.71,80.16l5.39,15.42c.91,2.49,1.64,4.76,2.21,7.03h.17c.62-2.27,1.42-4.54,2.32-7.03l5.33-15.42h5.21l-10.77,27.44h-4.76l-10.43-27.44h5.33Z"/>
      <path class="cls-1" d="M293.6,72.45c.06,1.7-1.19,3.06-3.17,3.06-1.76,0-3-1.36-3-3.06s1.3-3.12,3.12-3.12,3.06,1.36,3.06,3.12ZM288.05,107.6v-27.44h4.99v27.44h-4.99Z"/>
      <path class="cls-1" d="M301.31,87.59c0-2.83-.06-5.16-.23-7.43h4.42l.28,4.53h.11c1.36-2.61,4.54-5.16,9.07-5.16,3.8,0,9.69,2.27,9.69,11.68v16.38h-4.99v-15.82c0-4.42-1.64-8.11-6.35-8.11-3.29,0-5.84,2.32-6.69,5.1-.23.62-.34,1.47-.34,2.32v16.5h-4.99v-20.01Z"/>
      <path class="cls-1" d="M356.41,80.16c-.11,1.98-.23,4.19-.23,7.54v15.93c0,6.29-1.25,10.15-3.91,12.53-2.66,2.49-6.52,3.29-9.98,3.29s-6.92-.79-9.13-2.27l1.25-3.8c1.81,1.13,4.65,2.15,8.05,2.15,5.1,0,8.84-2.66,8.84-9.58v-3.06h-.11c-1.53,2.55-4.48,4.59-8.73,4.59-6.8,0-11.68-5.78-11.68-13.38,0-9.3,6.07-14.57,12.36-14.57,4.76,0,7.37,2.49,8.56,4.76h.11l.23-4.14h4.36ZM351.26,90.99c0-.85-.06-1.59-.28-2.27-.91-2.89-3.34-5.27-6.97-5.27-4.76,0-8.16,4.02-8.16,10.37,0,5.39,2.72,9.86,8.11,9.86,3.06,0,5.84-1.93,6.92-5.1.28-.85.4-1.81.4-2.66v-4.93Z"/>
      <path class="cls-1" d="M222.65,137.93c2.49-.51,6.07-.79,9.47-.79,5.27,0,8.67.96,11.05,3.12,1.93,1.7,3,4.31,3,7.26,0,5.04-3.17,8.39-7.2,9.75v.17c2.95,1.02,4.71,3.74,5.61,7.71,1.25,5.33,2.15,9.01,2.95,10.49h-5.1c-.62-1.08-1.47-4.36-2.55-9.13-1.13-5.27-3.17-7.26-7.65-7.43h-4.65v16.55h-4.93v-37.7ZM227.58,155.33h5.05c5.27,0,8.62-2.89,8.62-7.26,0-4.93-3.57-7.09-8.79-7.14-2.38,0-4.08.23-4.88.45v13.94Z"/>
      <path class="cls-1" d="M278.04,161.68c0,10.15-7.03,14.57-13.66,14.57-7.43,0-13.15-5.44-13.15-14.11,0-9.18,6.01-14.57,13.6-14.57s13.21,5.73,13.21,14.11ZM256.27,161.96c0,6.01,3.46,10.54,8.33,10.54s8.33-4.48,8.33-10.66c0-4.65-2.32-10.54-8.22-10.54s-8.45,5.44-8.45,10.66Z"/>
      <path class="cls-1" d="M309.16,161.68c0,10.15-7.03,14.57-13.66,14.57-7.43,0-13.15-5.44-13.15-14.11,0-9.18,6.01-14.57,13.6-14.57s13.21,5.73,13.21,14.11ZM287.39,161.96c0,6.01,3.46,10.54,8.33,10.54s8.33-4.48,8.33-10.66c0-4.65-2.32-10.54-8.22-10.54s-8.45,5.44-8.45,10.66Z"/>
      <path class="cls-1" d="M315.46,155.62c0-2.83-.06-5.16-.23-7.43h4.37l.23,4.42h.17c1.53-2.61,4.08-5.04,8.62-5.04,3.74,0,6.58,2.27,7.77,5.5h.11c.85-1.53,1.93-2.72,3.06-3.57,1.64-1.25,3.46-1.93,6.07-1.93,3.63,0,9.01,2.38,9.01,11.9v16.16h-4.88v-15.53c0-5.27-1.93-8.45-5.95-8.45-2.83,0-5.05,2.1-5.9,4.54-.23.68-.4,1.59-.4,2.49v16.95h-4.88v-16.44c0-4.36-1.93-7.54-5.73-7.54-3.12,0-5.39,2.49-6.18,4.99-.28.74-.4,1.59-.4,2.44v16.55h-4.88v-20.01Z"/>
      <path class="cls-1" d="M304.78,325.2h2.42v9.04h.08c.5-.72,1-1.39,1.47-2l5.73-7.03h3l-6.78,7.95,7.31,10.79h-2.86l-6.17-9.2-1.78,2.06v7.14h-2.42v-18.74Z"/>
      <path class="cls-1" d="M322.77,326.71c.03.83-.58,1.5-1.56,1.5-.86,0-1.47-.67-1.47-1.5s.64-1.53,1.53-1.53,1.5.67,1.5,1.53ZM320.04,343.94v-13.46h2.45v13.46h-2.45Z"/>
      <path class="cls-1" d="M329.49,326.62v3.86h3.5v1.86h-3.5v7.26c0,1.67.47,2.61,1.83,2.61.64,0,1.11-.08,1.42-.17l.11,1.83c-.47.19-1.22.33-2.17.33-1.14,0-2.06-.36-2.64-1.03-.69-.72-.95-1.92-.95-3.5v-7.34h-2.08v-1.86h2.08v-3.22l2.39-.64Z"/>
      <path class="cls-1" d="M345.17,343.44c-.64.33-2.06.78-3.86.78-4.06,0-6.7-2.75-6.7-6.87s2.84-7.15,7.23-7.15c1.45,0,2.72.36,3.39.7l-.56,1.89c-.58-.33-1.5-.64-2.84-.64-3.09,0-4.75,2.28-4.75,5.09,0,3.11,2,5.03,4.67,5.03,1.39,0,2.31-.36,3-.67l.42,1.83Z"/>
      <path class="cls-1" d="M348.03,324.2h2.45v8.4h.06c.39-.7,1-1.31,1.75-1.72.72-.42,1.58-.7,2.5-.7,1.81,0,4.7,1.11,4.7,5.75v8.01h-2.45v-7.73c0-2.17-.81-4-3.11-4-1.58,0-2.84,1.11-3.28,2.45-.14.33-.17.7-.17,1.17v8.12h-2.45v-19.74Z"/>
      <path class="cls-1" d="M364.82,337.66c.06,3.31,2.17,4.67,4.62,4.67,1.75,0,2.81-.31,3.73-.7l.42,1.75c-.86.39-2.34.83-4.48.83-4.14,0-6.62-2.72-6.62-6.78s2.39-7.26,6.31-7.26c4.39,0,5.56,3.86,5.56,6.34,0,.5-.06.89-.08,1.14h-9.45ZM372,335.91c.03-1.56-.64-3.98-3.39-3.98-2.47,0-3.56,2.28-3.75,3.98h7.15Z"/>
      <path class="cls-1" d="M377.39,334.13c0-1.39-.03-2.53-.11-3.64h2.17l.14,2.22h.06c.67-1.28,2.22-2.53,4.45-2.53,1.86,0,4.75,1.11,4.75,5.73v8.03h-2.45v-7.76c0-2.17-.81-3.98-3.11-3.98-1.61,0-2.86,1.14-3.28,2.5-.11.31-.17.72-.17,1.14v8.09h-2.45v-9.81Z"/>
      <path class="cls-1" d="M445.91,205.32c.92-.19,2.37-.34,3.85-.34,2.11,0,3.46.36,4.48,1.19.85.63,1.36,1.6,1.36,2.88,0,1.57-1.04,2.95-2.76,3.58v.05c1.55.39,3.36,1.67,3.36,4.09,0,1.4-.56,2.47-1.38,3.27-1.14,1.04-2.98,1.53-5.64,1.53-1.45,0-2.57-.1-3.27-.19v-16.04ZM448.01,212h1.91c2.23,0,3.53-1.16,3.53-2.73,0-1.91-1.45-2.66-3.58-2.66-.97,0-1.53.07-1.86.15v5.25ZM448.01,219.82c.41.07,1.02.1,1.77.1,2.18,0,4.19-.8,4.19-3.17,0-2.23-1.91-3.15-4.21-3.15h-1.74v6.22Z"/>
      <path class="cls-1" d="M460.23,215.95c.05,2.88,1.89,4.07,4.02,4.07,1.53,0,2.45-.27,3.24-.61l.36,1.52c-.75.34-2.03.73-3.89.73-3.61,0-5.76-2.37-5.76-5.91s2.08-6.32,5.49-6.32c3.82,0,4.84,3.36,4.84,5.52,0,.44-.05.77-.07.99h-8.23ZM466.48,214.42c.03-1.36-.56-3.46-2.95-3.46-2.15,0-3.1,1.99-3.27,3.46h6.22Z"/>
      <path class="cls-1" d="M481.29,204.23v14.16c0,1.04.02,2.23.1,3.03h-1.91l-.1-2.03h-.05c-.65,1.31-2.08,2.3-3.99,2.3-2.83,0-5.01-2.4-5.01-5.95-.02-3.9,2.4-6.29,5.25-6.29,1.79,0,3,.85,3.53,1.79h.05v-6.99h2.13ZM479.16,214.47c0-.27-.03-.63-.1-.9-.31-1.36-1.48-2.47-3.07-2.47-2.2,0-3.51,1.94-3.51,4.53,0,2.37,1.16,4.33,3.46,4.33,1.43,0,2.73-.94,3.12-2.54.07-.29.1-.58.1-.92v-2.03Z"/>
      <path class="cls-1" d="M484.83,213.36c0-1.38-.02-2.57-.1-3.65h1.86l.07,2.3h.1c.53-1.57,1.81-2.57,3.24-2.57.24,0,.41.02.61.07v2.01c-.22-.05-.44-.07-.73-.07-1.5,0-2.56,1.14-2.86,2.73-.05.29-.1.63-.1.99v6.24h-2.11v-8.06Z"/>
      <path class="cls-1" d="M503.1,215.46c0,4.33-3,6.22-5.83,6.22-3.17,0-5.62-2.32-5.62-6.03,0-3.92,2.57-6.22,5.81-6.22s5.64,2.44,5.64,6.03ZM493.81,215.58c0,2.57,1.48,4.5,3.56,4.5s3.56-1.91,3.56-4.55c0-1.98-.99-4.5-3.51-4.5s-3.61,2.32-3.61,4.55Z"/>
      <path class="cls-1" d="M516.39,215.46c0,4.33-3,6.22-5.83,6.22-3.17,0-5.61-2.32-5.61-6.03,0-3.92,2.56-6.22,5.81-6.22s5.64,2.44,5.64,6.03ZM507.09,215.58c0,2.57,1.48,4.5,3.56,4.5s3.56-1.91,3.56-4.55c0-1.98-.99-4.5-3.51-4.5s-3.61,2.32-3.61,4.55Z"/>
      <path class="cls-1" d="M519.08,212.87c0-1.21-.03-2.2-.1-3.17h1.86l.1,1.89h.07c.65-1.11,1.74-2.15,3.68-2.15,1.6,0,2.81.97,3.32,2.35h.05c.36-.65.82-1.16,1.31-1.52.7-.53,1.48-.82,2.59-.82,1.55,0,3.85,1.02,3.85,5.08v6.9h-2.08v-6.63c0-2.25-.82-3.61-2.54-3.61-1.21,0-2.15.89-2.52,1.94-.1.29-.17.68-.17,1.06v7.24h-2.08v-7.02c0-1.86-.82-3.22-2.44-3.22-1.33,0-2.3,1.06-2.64,2.13-.12.31-.17.68-.17,1.04v7.07h-2.08v-8.54Z"/>
      <path class="cls-1" d="M47.14,205.32c.92-.19,2.37-.34,3.85-.34,2.11,0,3.46.36,4.48,1.19.85.63,1.36,1.6,1.36,2.88,0,1.57-1.04,2.95-2.76,3.58v.05c1.55.39,3.36,1.67,3.36,4.09,0,1.4-.56,2.47-1.38,3.27-1.14,1.04-2.98,1.53-5.64,1.53-1.45,0-2.57-.1-3.27-.19v-16.04ZM49.25,212h1.91c2.23,0,3.53-1.16,3.53-2.73,0-1.91-1.45-2.66-3.58-2.66-.97,0-1.52.07-1.86.15v5.25ZM49.25,219.82c.41.07,1.02.1,1.77.1,2.18,0,4.19-.8,4.19-3.17,0-2.23-1.91-3.15-4.21-3.15h-1.74v6.22Z"/>
      <path class="cls-1" d="M61.47,215.95c.05,2.88,1.89,4.07,4.02,4.07,1.52,0,2.44-.27,3.24-.61l.36,1.52c-.75.34-2.03.73-3.9.73-3.61,0-5.76-2.37-5.76-5.91s2.08-6.32,5.49-6.32c3.82,0,4.84,3.36,4.84,5.52,0,.44-.05.77-.07.99h-8.23ZM67.72,214.42c.02-1.36-.56-3.46-2.95-3.46-2.15,0-3.1,1.99-3.27,3.46h6.22Z"/>
      <path class="cls-1" d="M82.53,204.23v14.16c0,1.04.02,2.23.1,3.03h-1.91l-.1-2.03h-.05c-.65,1.31-2.08,2.3-3.99,2.3-2.83,0-5.01-2.4-5.01-5.95-.02-3.9,2.4-6.29,5.25-6.29,1.79,0,3,.85,3.53,1.79h.05v-6.99h2.13ZM80.4,214.47c0-.27-.02-.63-.1-.9-.31-1.36-1.48-2.47-3.07-2.47-2.2,0-3.51,1.94-3.51,4.53,0,2.37,1.16,4.33,3.46,4.33,1.43,0,2.73-.94,3.12-2.54.07-.29.1-.58.1-.92v-2.03Z"/>
      <path class="cls-1" d="M86.07,213.36c0-1.38-.02-2.57-.1-3.65h1.86l.07,2.3h.1c.53-1.57,1.81-2.57,3.24-2.57.24,0,.41.02.61.07v2.01c-.22-.05-.44-.07-.73-.07-1.5,0-2.56,1.14-2.86,2.73-.05.29-.1.63-.1.99v6.24h-2.11v-8.06Z"/>
      <path class="cls-1" d="M104.34,215.46c0,4.33-3,6.22-5.83,6.22-3.17,0-5.61-2.32-5.61-6.03,0-3.92,2.57-6.22,5.81-6.22s5.64,2.44,5.64,6.03ZM95.04,215.58c0,2.57,1.48,4.5,3.56,4.5s3.56-1.91,3.56-4.55c0-1.98-.99-4.5-3.51-4.5s-3.61,2.32-3.61,4.55Z"/>
      <path class="cls-1" d="M117.63,215.46c0,4.33-3,6.22-5.83,6.22-3.17,0-5.61-2.32-5.61-6.03,0-3.92,2.56-6.22,5.81-6.22s5.64,2.44,5.64,6.03ZM108.33,215.58c0,2.57,1.48,4.5,3.56,4.5s3.56-1.91,3.56-4.55c0-1.98-.99-4.5-3.51-4.5s-3.61,2.32-3.61,4.55Z"/>
      <path class="cls-1" d="M120.31,212.87c0-1.21-.02-2.2-.1-3.17h1.86l.1,1.89h.07c.65-1.11,1.74-2.15,3.68-2.15,1.6,0,2.81.97,3.32,2.35h.05c.36-.65.82-1.16,1.31-1.52.7-.53,1.48-.82,2.59-.82,1.55,0,3.85,1.02,3.85,5.08v6.9h-2.08v-6.63c0-2.25-.82-3.61-2.54-3.61-1.21,0-2.15.89-2.52,1.94-.1.29-.17.68-.17,1.06v7.24h-2.08v-7.02c0-1.86-.82-3.22-2.44-3.22-1.33,0-2.3,1.06-2.64,2.13-.12.31-.17.68-.17,1.04v7.07h-2.08v-8.54Z"/>
      <path class="cls-1" d="M624.95,205.32c.92-.19,2.37-.34,3.85-.34,2.11,0,3.46.36,4.48,1.19.85.63,1.36,1.6,1.36,2.88,0,1.57-1.04,2.95-2.76,3.58v.05c1.55.39,3.36,1.67,3.36,4.09,0,1.4-.56,2.47-1.38,3.27-1.14,1.04-2.98,1.53-5.64,1.53-1.45,0-2.57-.1-3.27-.19v-16.04ZM627.05,212h1.91c2.23,0,3.53-1.16,3.53-2.73,0-1.91-1.45-2.66-3.58-2.66-.97,0-1.53.07-1.86.15v5.25ZM627.05,219.82c.41.07,1.02.1,1.77.1,2.18,0,4.19-.8,4.19-3.17,0-2.23-1.91-3.15-4.21-3.15h-1.74v6.22Z"/>
      <path class="cls-1" d="M639.27,215.95c.05,2.88,1.89,4.07,4.02,4.07,1.53,0,2.45-.27,3.24-.61l.36,1.52c-.75.34-2.03.73-3.89.73-3.61,0-5.76-2.37-5.76-5.91s2.08-6.32,5.49-6.32c3.82,0,4.84,3.36,4.84,5.52,0,.44-.05.77-.07.99h-8.23ZM645.52,214.42c.03-1.36-.56-3.46-2.95-3.46-2.15,0-3.1,1.99-3.27,3.46h6.22Z"/>
      <path class="cls-1" d="M660.33,204.23v14.16c0,1.04.02,2.23.1,3.03h-1.91l-.1-2.03h-.05c-.65,1.31-2.08,2.3-3.99,2.3-2.83,0-5.01-2.4-5.01-5.95-.02-3.9,2.4-6.29,5.25-6.29,1.79,0,3,.85,3.53,1.79h.05v-6.99h2.13ZM658.2,214.47c0-.27-.03-.63-.1-.9-.31-1.36-1.48-2.47-3.07-2.47-2.2,0-3.51,1.94-3.51,4.53,0,2.37,1.16,4.33,3.46,4.33,1.43,0,2.73-.94,3.12-2.54.07-.29.1-.58.1-.92v-2.03Z"/>
      <path class="cls-1" d="M663.86,213.36c0-1.38-.02-2.57-.1-3.65h1.86l.07,2.3h.1c.53-1.57,1.81-2.57,3.24-2.57.24,0,.41.02.61.07v2.01c-.22-.05-.44-.07-.73-.07-1.5,0-2.56,1.14-2.86,2.73-.05.29-.1.63-.1.99v6.24h-2.11v-8.06Z"/>
      <path class="cls-1" d="M682.14,215.46c0,4.33-3,6.22-5.83,6.22-3.17,0-5.62-2.32-5.62-6.03,0-3.92,2.57-6.22,5.81-6.22s5.64,2.44,5.64,6.03ZM672.85,215.58c0,2.57,1.48,4.5,3.56,4.5s3.56-1.91,3.56-4.55c0-1.98-.99-4.5-3.51-4.5s-3.61,2.32-3.61,4.55Z"/>
      <path class="cls-1" d="M695.43,215.46c0,4.33-3,6.22-5.83,6.22-3.17,0-5.61-2.32-5.61-6.03,0-3.92,2.56-6.22,5.81-6.22s5.64,2.44,5.64,6.03ZM686.13,215.58c0,2.57,1.48,4.5,3.56,4.5s3.56-1.91,3.56-4.55c0-1.98-.99-4.5-3.51-4.5s-3.61,2.32-3.61,4.55Z"/>
      <path class="cls-1" d="M698.11,212.87c0-1.21-.03-2.2-.1-3.17h1.86l.1,1.89h.07c.65-1.11,1.74-2.15,3.68-2.15,1.6,0,2.81.97,3.32,2.35h.05c.36-.65.82-1.16,1.31-1.52.7-.53,1.48-.82,2.59-.82,1.55,0,3.85,1.02,3.85,5.08v6.9h-2.08v-6.63c0-2.25-.82-3.61-2.54-3.61-1.21,0-2.15.89-2.52,1.94-.1.29-.17.68-.17,1.06v7.24h-2.08v-7.02c0-1.86-.82-3.22-2.44-3.22-1.33,0-2.3,1.06-2.64,2.13-.12.31-.17.68-.17,1.04v7.07h-2.08v-8.54Z"/>
      <path class="cls-1" d="M12.07,281.28c.77-.16,2-.29,3.24-.29,1.77,0,2.91.31,3.77,1,.71.53,1.14,1.34,1.14,2.42,0,1.32-.88,2.49-2.32,3.01v.04c1.3.33,2.83,1.41,2.83,3.44,0,1.18-.47,2.08-1.16,2.75-.96.88-2.51,1.28-4.75,1.28-1.22,0-2.16-.08-2.75-.16v-13.5ZM13.84,286.91h1.61c1.87,0,2.97-.98,2.97-2.3,0-1.61-1.22-2.24-3.01-2.24-.81,0-1.28.06-1.57.12v4.42ZM13.84,293.49c.35.06.86.08,1.49.08,1.83,0,3.52-.67,3.52-2.67,0-1.87-1.61-2.65-3.54-2.65h-1.47v5.24Z"/>
      <path class="cls-1" d="M28.51,294.83l-.14-1.24h-.06c-.55.77-1.61,1.47-3.01,1.47-2,0-3.02-1.41-3.02-2.83,0-2.38,2.12-3.69,5.93-3.67v-.2c0-.82-.22-2.28-2.24-2.28-.92,0-1.87.29-2.57.73l-.41-1.18c.81-.53,2-.88,3.24-.88,3.01,0,3.75,2.06,3.75,4.03v3.69c0,.86.04,1.69.16,2.36h-1.63ZM28.24,289.8c-1.96-.04-4.18.31-4.18,2.22,0,1.16.77,1.71,1.69,1.71,1.28,0,2.1-.82,2.38-1.65.06-.18.1-.39.1-.57v-1.71Z"/>
      <path class="cls-1" d="M34.94,282.14v2.83h2.57v1.37h-2.57v5.32c0,1.22.35,1.92,1.34,1.92.47,0,.81-.06,1.04-.12l.08,1.34c-.35.14-.9.25-1.59.25-.84,0-1.51-.27-1.94-.75-.51-.53-.69-1.41-.69-2.57v-5.38h-1.53v-1.37h1.53v-2.36l1.75-.47Z"/>
      <path class="cls-1" d="M39.53,280.37h1.79v6.15h.04c.29-.51.73-.96,1.28-1.26.53-.31,1.16-.51,1.83-.51,1.32,0,3.44.81,3.44,4.22v5.87h-1.79v-5.66c0-1.59-.59-2.93-2.28-2.93-1.16,0-2.08.82-2.4,1.79-.1.24-.12.51-.12.86v5.95h-1.79v-14.46Z"/>
      <path class="cls-1" d="M50.83,288.05c0-1.16-.02-2.16-.08-3.08h1.57l.06,1.94h.08c.45-1.32,1.53-2.16,2.73-2.16.2,0,.35.02.51.06v1.69c-.18-.04-.37-.06-.61-.06-1.26,0-2.16.96-2.4,2.3-.04.24-.08.53-.08.83v5.26h-1.77v-6.78Z"/>
      <path class="cls-1" d="M66.21,289.82c0,3.65-2.53,5.23-4.91,5.23-2.67,0-4.73-1.96-4.73-5.07,0-3.3,2.16-5.23,4.89-5.23s4.75,2.06,4.75,5.07ZM58.39,289.92c0,2.16,1.24,3.79,2.99,3.79s2.99-1.61,2.99-3.83c0-1.67-.84-3.79-2.95-3.79s-3.04,1.96-3.04,3.83Z"/>
      <path class="cls-1" d="M77.4,289.82c0,3.65-2.53,5.23-4.91,5.23-2.67,0-4.73-1.96-4.73-5.07,0-3.3,2.16-5.23,4.89-5.23s4.75,2.06,4.75,5.07ZM69.57,289.92c0,2.16,1.24,3.79,2.99,3.79s2.99-1.61,2.99-3.83c0-1.67-.84-3.79-2.95-3.79s-3.04,1.96-3.04,3.83Z"/>
      <path class="cls-1" d="M79.66,287.64c0-1.02-.02-1.85-.08-2.67h1.57l.08,1.59h.06c.55-.94,1.47-1.81,3.1-1.81,1.34,0,2.36.81,2.79,1.98h.04c.31-.55.69-.98,1.1-1.28.59-.45,1.24-.69,2.18-.69,1.3,0,3.24.86,3.24,4.28v5.81h-1.75v-5.58c0-1.89-.69-3.04-2.14-3.04-1.02,0-1.81.75-2.12,1.63-.08.25-.14.57-.14.9v6.09h-1.75v-5.91c0-1.57-.69-2.71-2.06-2.71-1.12,0-1.94.9-2.22,1.79-.1.26-.14.57-.14.88v5.95h-1.75v-7.19Z"/>
      <path class="cls-1" d="M669.85,281.28c.77-.16,2-.29,3.24-.29,1.77,0,2.91.31,3.77,1,.71.53,1.14,1.34,1.14,2.42,0,1.32-.88,2.49-2.32,3.01v.04c1.3.33,2.83,1.41,2.83,3.44,0,1.18-.47,2.08-1.16,2.75-.96.88-2.51,1.28-4.75,1.28-1.22,0-2.16-.08-2.75-.16v-13.5ZM671.62,286.91h1.61c1.88,0,2.97-.98,2.97-2.3,0-1.61-1.22-2.24-3.01-2.24-.82,0-1.28.06-1.57.12v4.42ZM671.62,293.49c.35.06.86.08,1.49.08,1.83,0,3.52-.67,3.52-2.67,0-1.87-1.61-2.65-3.54-2.65h-1.47v5.24Z"/>
      <path class="cls-1" d="M686.29,294.83l-.14-1.24h-.06c-.55.77-1.61,1.47-3.01,1.47-2,0-3.02-1.41-3.02-2.83,0-2.38,2.12-3.69,5.93-3.67v-.2c0-.82-.22-2.28-2.24-2.28-.92,0-1.87.29-2.57.73l-.41-1.18c.82-.53,2-.88,3.24-.88,3.01,0,3.75,2.06,3.75,4.03v3.69c0,.86.04,1.69.16,2.36h-1.63ZM686.02,289.8c-1.96-.04-4.18.31-4.18,2.22,0,1.16.77,1.71,1.69,1.71,1.28,0,2.1-.82,2.38-1.65.06-.18.1-.39.1-.57v-1.71Z"/>
      <path class="cls-1" d="M692.72,282.14v2.83h2.57v1.37h-2.57v5.32c0,1.22.35,1.92,1.34,1.92.47,0,.81-.06,1.04-.12l.08,1.34c-.35.14-.9.25-1.59.25-.83,0-1.51-.27-1.94-.75-.51-.53-.69-1.41-.69-2.57v-5.38h-1.53v-1.37h1.53v-2.36l1.75-.47Z"/>
      <path class="cls-1" d="M697.31,280.37h1.79v6.15h.04c.29-.51.73-.96,1.28-1.26.53-.31,1.16-.51,1.83-.51,1.32,0,3.44.81,3.44,4.22v5.87h-1.79v-5.66c0-1.59-.59-2.93-2.28-2.93-1.16,0-2.08.82-2.4,1.79-.1.24-.12.51-.12.86v5.95h-1.79v-14.46Z"/>
      <path class="cls-1" d="M708.61,288.05c0-1.16-.02-2.16-.08-3.08h1.57l.06,1.94h.08c.45-1.32,1.53-2.16,2.73-2.16.2,0,.35.02.51.06v1.69c-.18-.04-.37-.06-.61-.06-1.26,0-2.16.96-2.4,2.3-.04.24-.08.53-.08.83v5.26h-1.77v-6.78Z"/>
      <path class="cls-1" d="M723.99,289.82c0,3.65-2.53,5.23-4.91,5.23-2.67,0-4.73-1.96-4.73-5.07,0-3.3,2.16-5.23,4.89-5.23s4.75,2.06,4.75,5.07ZM716.17,289.92c0,2.16,1.24,3.79,3,3.79s2.99-1.61,2.99-3.83c0-1.67-.84-3.79-2.95-3.79s-3.04,1.96-3.04,3.83Z"/>
      <path class="cls-1" d="M735.18,289.82c0,3.65-2.53,5.23-4.91,5.23-2.67,0-4.73-1.96-4.73-5.07,0-3.3,2.16-5.23,4.89-5.23s4.75,2.06,4.75,5.07ZM727.35,289.92c0,2.16,1.24,3.79,3,3.79s2.99-1.61,2.99-3.83c0-1.67-.84-3.79-2.95-3.79s-3.04,1.96-3.04,3.83Z"/>
      <path class="cls-1" d="M737.44,287.64c0-1.02-.02-1.85-.08-2.67h1.57l.08,1.59h.06c.55-.94,1.47-1.81,3.1-1.81,1.34,0,2.36.81,2.79,1.98h.04c.3-.55.69-.98,1.1-1.28.59-.45,1.24-.69,2.18-.69,1.3,0,3.24.86,3.24,4.28v5.81h-1.75v-5.58c0-1.89-.69-3.04-2.14-3.04-1.02,0-1.81.75-2.12,1.63-.08.25-.14.57-.14.9v6.09h-1.75v-5.91c0-1.57-.69-2.71-2.06-2.71-1.12,0-1.94.9-2.22,1.79-.1.26-.14.57-.14.88v5.95h-1.75v-7.19Z"/>
      <path class="cls-1" d="M120.2,294.96l-4.51-13.83h1.93l2.16,6.81c.59,1.87,1.11,3.55,1.48,5.17h.04c.39-1.6.96-3.35,1.58-5.15l2.34-6.83h1.91l-4.95,13.83h-1.97Z"/>
      <path class="cls-1" d="M133.38,294.96l-.14-1.25h-.06c-.55.78-1.62,1.48-3.04,1.48-2.01,0-3.04-1.42-3.04-2.85,0-2.4,2.13-3.71,5.97-3.69v-.21c0-.82-.23-2.3-2.26-2.3-.92,0-1.89.29-2.59.74l-.41-1.19c.82-.53,2.01-.88,3.26-.88,3.04,0,3.78,2.07,3.78,4.06v3.71c0,.86.04,1.7.16,2.38h-1.64ZM133.11,289.89c-1.97-.04-4.21.31-4.21,2.24,0,1.17.78,1.72,1.7,1.72,1.29,0,2.11-.82,2.4-1.66.06-.18.1-.39.1-.58v-1.72Z"/>
      <path class="cls-1" d="M137.77,287.72c0-1.03-.02-1.87-.08-2.69h1.6l.1,1.64h.04c.49-.94,1.64-1.87,3.28-1.87,1.38,0,3.51.82,3.51,4.23v5.93h-1.81v-5.73c0-1.6-.59-2.94-2.3-2.94-1.19,0-2.11.84-2.42,1.85-.08.23-.12.53-.12.84v5.97h-1.81v-7.25Z"/>
      <path class="cls-1" d="M151.18,282.24c.02.62-.43,1.11-1.15,1.11-.64,0-1.09-.49-1.09-1.11s.47-1.13,1.13-1.13,1.11.49,1.11,1.13ZM149.17,294.96v-9.93h1.81v9.93h-1.81Z"/>
      <path class="cls-1" d="M156.15,282.18v2.85h2.59v1.38h-2.59v5.36c0,1.23.35,1.93,1.35,1.93.47,0,.82-.06,1.05-.12l.08,1.35c-.35.14-.9.25-1.6.25-.84,0-1.52-.27-1.95-.76-.51-.53-.7-1.42-.7-2.59v-5.42h-1.54v-1.38h1.54v-2.38l1.77-.47Z"/>
      <path class="cls-1" d="M161.61,285.03l2.18,5.87c.23.66.47,1.44.64,2.03h.04c.18-.59.39-1.35.64-2.07l1.97-5.83h1.91l-2.71,7.08c-1.29,3.41-2.18,5.15-3.41,6.22-.88.78-1.76,1.09-2.22,1.17l-.45-1.52c.45-.14,1.05-.43,1.58-.88.49-.39,1.11-1.09,1.52-2.01.08-.18.14-.33.14-.43s-.04-.25-.12-.47l-3.67-9.15h1.97Z"/>
      <path class="cls-1" d="M557.04,294.96l-4.51-13.83h1.93l2.16,6.81c.59,1.87,1.11,3.55,1.48,5.17h.04c.39-1.6.96-3.35,1.58-5.15l2.34-6.83h1.91l-4.95,13.83h-1.97Z"/>
      <path class="cls-1" d="M570.22,294.96l-.14-1.25h-.06c-.55.78-1.62,1.48-3.04,1.48-2.01,0-3.04-1.42-3.04-2.85,0-2.4,2.13-3.71,5.97-3.69v-.21c0-.82-.23-2.3-2.26-2.3-.92,0-1.89.29-2.59.74l-.41-1.19c.82-.53,2.01-.88,3.26-.88,3.04,0,3.78,2.07,3.78,4.06v3.71c0,.86.04,1.7.16,2.38h-1.64ZM569.95,289.89c-1.97-.04-4.21.31-4.21,2.24,0,1.17.78,1.72,1.7,1.72,1.29,0,2.11-.82,2.4-1.66.06-.18.1-.39.1-.58v-1.72Z"/>
      <path class="cls-1" d="M574.61,287.72c0-1.03-.02-1.87-.08-2.69h1.6l.1,1.64h.04c.49-.94,1.64-1.87,3.28-1.87,1.38,0,3.51.82,3.51,4.23v5.93h-1.81v-5.73c0-1.6-.59-2.94-2.3-2.94-1.19,0-2.11.84-2.42,1.85-.08.23-.12.53-.12.84v5.97h-1.81v-7.25Z"/>
      <path class="cls-1" d="M588.02,282.24c.02.62-.43,1.11-1.15,1.11-.64,0-1.09-.49-1.09-1.11s.47-1.13,1.13-1.13,1.11.49,1.11,1.13ZM586.01,294.96v-9.93h1.81v9.93h-1.81Z"/>
      <path class="cls-1" d="M592.99,282.18v2.85h2.59v1.38h-2.59v5.36c0,1.23.35,1.93,1.35,1.93.47,0,.82-.06,1.05-.12l.08,1.35c-.35.14-.9.25-1.6.25-.84,0-1.52-.27-1.95-.76-.51-.53-.7-1.42-.7-2.59v-5.42h-1.54v-1.38h1.54v-2.38l1.77-.47Z"/>
      <path class="cls-1" d="M598.45,285.03l2.18,5.87c.23.66.47,1.44.64,2.03h.04c.18-.59.39-1.35.64-2.07l1.97-5.83h1.91l-2.71,7.08c-1.29,3.41-2.18,5.15-3.41,6.22-.88.78-1.76,1.09-2.22,1.17l-.45-1.52c.45-.14,1.05-.43,1.58-.88.49-.39,1.11-1.09,1.52-2.01.08-.18.14-.33.14-.43s-.04-.25-.12-.47l-3.67-9.15h1.97Z"/>
      <g>
        <polygon class="cls-2" points="579.2 379.08 579.2 315.72 506.72 315.72 506.72 254.48 663 254.48 663 379.08 579.2 379.08"/>
        <polygon class="cls-2" points="660.8 379.08 660.8 254.48 760.44 254.48 760.44 340.2 738.96 340.2 738.96 379.08 660.8 379.08"/>
        <polygon class="cls-2" points="508.92 255.08 508.92 315.72 439.8 315.72 439.8 379.08 258.56 379.08 258.56 360.84 180.44 360.84 180.44 255.08 508.92 255.08"/>
        <rect class="cls-2" x="180.44" y="1.4" width="221.92" height="253.68"/>
        <rect class="cls-2" x="1.4" y="24.08" width="181.24" height="232.6"/>
        <polygon class="cls-2" points="27.2 379.08 27.2 339.24 1.4 339.24 1.4 254.48 104.28 254.48 104.28 379.08 27.2 379.08"/>
        <rect class="cls-2" x="102.08" y="254.48" width="80.56" height="124.6"/>
        <rect class="cls-2" x="579.2" y="24.08" width="181.24" height="232.6"/>
        <rect class="cls-2" x="400.16" y="24.08" width="181.24" height="232.6"/>
      </g>
    </g>
  </g>
</svg>